<?xml version="1.0" encoding="UTF-8" standalone="no"?>
<!-- Created with Inkscape (http://www.inkscape.org/) -->

<svg
   xmlns:dc="http://purl.org/dc/elements/1.1/"
   xmlns:cc="http://creativecommons.org/ns#"
   xmlns:rdf="http://www.w3.org/1999/02/22-rdf-syntax-ns#"
   xmlns:svg="http://www.w3.org/2000/svg"
   xmlns="http://www.w3.org/2000/svg"
   xmlns:sodipodi="http://sodipodi.sourceforge.net/DTD/sodipodi-0.dtd"
   xmlns:inkscape="http://www.inkscape.org/namespaces/inkscape"
   width="16mm"
   height="16mm"
   viewBox="0 0 15.999999 15.999999"
   version="1.1"
   id="svg3745"
   inkscape:version="0.92.4 (5da689c313, 2019-01-14)"
   sodipodi:docname="logo.svg">
  <defs
     id="defs3739">
    <inkscape:path-effect
       effect="fill_between_many"
       linkedpaths="#path6356,0"
       allow_transforms="false"
       id="path-effect884"
       is_visible="true" />
    <inkscape:path-effect
       effect="fill_between_many"
       linkedpaths="#path6356,0"
       allow_transforms="false"
       id="path-effect6616"
       is_visible="true" />
    <filter
       inkscape:collect="always"
       style="color-interpolation-filters:sRGB"
       id="filter842"
       x="-0.021375143"
       width="1.0427503"
       y="-0.027359766"
       height="1.0547195">
      <feGaussianBlur
         inkscape:collect="always"
         stdDeviation="0.10902577"
         id="feGaussianBlur844" />
    </filter>
  </defs>
  <sodipodi:namedview
     id="base"
     pagecolor="#ffffff"
     bordercolor="#666666"
     borderopacity="1.0"
     inkscape:pageopacity="0.0"
     inkscape:pageshadow="2"
     inkscape:zoom="22.4"
     inkscape:cx="25.199394"
     inkscape:cy="39.527604"
     inkscape:document-units="mm"
     inkscape:current-layer="layer1"
     showgrid="false"
     inkscape:lockguides="false"
     inkscape:window-width="3440"
     inkscape:window-height="1387"
     inkscape:window-x="-8"
     inkscape:window-y="255"
     inkscape:window-maximized="1" />
  <metadata
     id="metadata3742">
    <rdf:RDF>
      <cc:Work
         rdf:about="">
        <dc:format>image/svg+xml</dc:format>
        <dc:type
           rdf:resource="http://purl.org/dc/dcmitype/StillImage" />
        <dc:title></dc:title>
      </cc:Work>
    </rdf:RDF>
  </metadata>
  <g
     inkscape:label="Ebene 1"
     inkscape:groupmode="layer"
     id="layer1"
     transform="translate(-44.901291,-174.35945)">
    <circle
       id="path5521"
       cx="52.92041"
       cy="182.3504"
       r="7.8658104"
       style="stroke-width:0.03507547" />
    <path
       style="fill:#ffffff;stroke:#000000;stroke-width:0.06628436;stroke-miterlimit:4;stroke-dasharray:none;stroke-opacity:1"
       d="m 52.333321,190.19639 c -2.579532,-0.20516 -4.845735,-1.60322 -6.171085,-3.80707 -1.059204,-1.76128 -1.380855,-3.90073 -0.887423,-5.90267 0.277033,-1.12397 0.777972,-2.13523 1.518829,-3.06612 0.243575,-0.30605 0.864527,-0.92659 1.172737,-1.17195 1.215029,-0.96728 2.557695,-1.52305 4.118921,-1.70496 0.330883,-0.0385 1.217784,-0.0446 1.550131,-0.0105 2.243052,0.22975 4.233693,1.34942 5.566058,3.13073 0.727685,0.97288 1.22849,2.13405 1.439683,3.33805 0.0883,0.50339 0.10607,0.73067 0.10607,1.35663 0,0.62596 -0.01778,0.85325 -0.10607,1.35664 -0.32922,1.87686 -1.339638,3.58391 -2.824814,4.77237 -1.411232,1.12928 -3.161828,1.73833 -4.959533,1.72547 -0.190491,-0.001 -0.426068,-0.009 -0.523504,-0.0166 z"
       id="path5525"
       inkscape:connector-curvature="0" />
    <path
       style="fill:none;stroke-width:0.01771579"
       d="m 52.209414,190.16978 c -0.952194,-0.10307 -1.799535,-0.33241 -2.604221,-0.70486 -2.325291,-1.07626 -3.989327,-3.24292 -4.429189,-5.76703 -0.07241,-0.41552 -0.09941,-0.70625 -0.109674,-1.18096 -0.02083,-0.96341 0.108893,-1.80844 0.416105,-2.71051 0.139701,-0.41021 0.37484,-0.93442 0.591429,-1.31851 0.136409,-0.24191 0.506457,-0.792 0.674371,-1.00248 0.437097,-0.54791 1.078683,-1.15503 1.624173,-1.53692 1.102786,-0.77203 2.231134,-1.20691 3.624417,-1.39688 0.339089,-0.0462 1.494377,-0.0467 1.824726,-7.5e-4 1.114412,0.15515 2.098331,0.48282 2.985111,0.99411 1.345728,0.77591 2.399461,1.88706 3.091916,3.2604 0.418438,0.82988 0.671465,1.6548 0.800288,2.60911 0.04405,0.32631 0.04405,1.54177 0,1.86809 -0.243858,1.80649 -1.00561,3.36639 -2.252215,4.61206 -1.243115,1.24218 -2.814276,2.01105 -4.580811,2.24167 -0.239666,0.0313 -0.402384,0.0391 -0.903504,0.0434 -0.336158,0.003 -0.674972,-0.002 -0.752922,-0.0101 z"
       id="path5527"
       inkscape:connector-curvature="0" />
    <path
       style="fill:none;stroke-width:0.01771579"
       d="m 52.209414,190.16978 c -0.952194,-0.10307 -1.799535,-0.33241 -2.604221,-0.70486 -2.325291,-1.07626 -3.989327,-3.24292 -4.429189,-5.76703 -0.07241,-0.41552 -0.09941,-0.70625 -0.109674,-1.18096 -0.02083,-0.96341 0.108893,-1.80844 0.416105,-2.71051 0.139701,-0.41021 0.37484,-0.93442 0.591429,-1.31851 0.136409,-0.24191 0.506457,-0.792 0.674371,-1.00248 0.437097,-0.54791 1.078683,-1.15503 1.624173,-1.53692 1.102786,-0.77203 2.231134,-1.20691 3.624417,-1.39688 0.339089,-0.0462 1.494377,-0.0467 1.824726,-7.5e-4 1.114412,0.15515 2.098331,0.48282 2.985111,0.99411 1.345728,0.77591 2.399461,1.88706 3.091916,3.2604 0.418438,0.82988 0.671465,1.6548 0.800288,2.60911 0.04405,0.32631 0.04405,1.54177 0,1.86809 -0.243858,1.80649 -1.00561,3.36639 -2.252215,4.61206 -1.243115,1.24218 -2.814276,2.01105 -4.580811,2.24167 -0.239666,0.0313 -0.402384,0.0391 -0.903504,0.0434 -0.336158,0.003 -0.674972,-0.002 -0.752922,-0.0101 z"
       id="path5529"
       inkscape:connector-curvature="0" />
    <path
       style="fill:none;stroke-width:0.01771579"
       d="m 52.209414,190.16978 c -0.952194,-0.10307 -1.799535,-0.33241 -2.604221,-0.70486 -2.325291,-1.07626 -3.989327,-3.24292 -4.429189,-5.76703 -0.07241,-0.41552 -0.09941,-0.70625 -0.109674,-1.18096 -0.02083,-0.96341 0.108893,-1.80844 0.416105,-2.71051 0.139701,-0.41021 0.37484,-0.93442 0.591429,-1.31851 0.136409,-0.24191 0.506457,-0.792 0.674371,-1.00248 0.437097,-0.54791 1.078683,-1.15503 1.624173,-1.53692 1.102786,-0.77203 2.231134,-1.20691 3.624417,-1.39688 0.339089,-0.0462 1.494377,-0.0467 1.824726,-7.5e-4 1.114412,0.15515 2.098331,0.48282 2.985111,0.99411 1.345728,0.77591 2.399461,1.88706 3.091916,3.2604 0.418438,0.82988 0.671465,1.6548 0.800288,2.60911 0.04405,0.32631 0.04405,1.54177 0,1.86809 -0.243858,1.80649 -1.00561,3.36639 -2.252215,4.61206 -1.243115,1.24218 -2.814276,2.01105 -4.580811,2.24167 -0.239666,0.0313 -0.402384,0.0391 -0.903504,0.0434 -0.336158,0.003 -0.674972,-0.002 -0.752922,-0.0101 z"
       id="path5531"
       inkscape:connector-curvature="0" />
    <path
       style="fill:none;stroke-width:0.01771579"
       d="m 52.209414,190.16978 c -0.952194,-0.10307 -1.799535,-0.33241 -2.604221,-0.70486 -2.325291,-1.07626 -3.989327,-3.24292 -4.429189,-5.76703 -0.07241,-0.41552 -0.09941,-0.70625 -0.109674,-1.18096 -0.02083,-0.96341 0.108893,-1.80844 0.416105,-2.71051 0.139701,-0.41021 0.37484,-0.93442 0.591429,-1.31851 0.136409,-0.24191 0.506457,-0.792 0.674371,-1.00248 0.437097,-0.54791 1.078683,-1.15503 1.624173,-1.53692 1.102786,-0.77203 2.231134,-1.20691 3.624417,-1.39688 0.339089,-0.0462 1.494377,-0.0467 1.824726,-7.5e-4 1.114412,0.15515 2.098331,0.48282 2.985111,0.99411 1.345728,0.77591 2.399461,1.88706 3.091916,3.2604 0.418438,0.82988 0.671465,1.6548 0.800288,2.60911 0.04405,0.32631 0.04405,1.54177 0,1.86809 -0.243858,1.80649 -1.00561,3.36639 -2.252215,4.61206 -1.243115,1.24218 -2.814276,2.01105 -4.580811,2.24167 -0.239666,0.0313 -0.402384,0.0391 -0.903504,0.0434 -0.336158,0.003 -0.674972,-0.002 -0.752922,-0.0101 z"
       id="path5533"
       inkscape:connector-curvature="0" />
    <path
       style="fill:none;stroke-width:0.01771579"
       d="m 52.209414,190.16978 c -0.952194,-0.10307 -1.799535,-0.33241 -2.604221,-0.70486 -2.325291,-1.07626 -3.989327,-3.24292 -4.429189,-5.76703 -0.07241,-0.41552 -0.09941,-0.70625 -0.109674,-1.18096 -0.02083,-0.96341 0.108893,-1.80844 0.416105,-2.71051 0.139701,-0.41021 0.37484,-0.93442 0.591429,-1.31851 0.136409,-0.24191 0.506457,-0.792 0.674371,-1.00248 0.437097,-0.54791 1.078683,-1.15503 1.624173,-1.53692 1.102786,-0.77203 2.231134,-1.20691 3.624417,-1.39688 0.339089,-0.0462 1.494377,-0.0467 1.824726,-7.5e-4 1.114412,0.15515 2.098331,0.48282 2.985111,0.99411 1.345728,0.77591 2.399461,1.88706 3.091916,3.2604 0.418438,0.82988 0.671465,1.6548 0.800288,2.60911 0.04405,0.32631 0.04405,1.54177 0,1.86809 -0.243858,1.80649 -1.00561,3.36639 -2.252215,4.61206 -1.243115,1.24218 -2.814276,2.01105 -4.580811,2.24167 -0.239666,0.0313 -0.402384,0.0391 -0.903504,0.0434 -0.336158,0.003 -0.674972,-0.002 -0.752922,-0.0101 z"
       id="path5535"
       inkscape:connector-curvature="0" />
    <path
       style="fill:none;stroke-width:0.01771579"
       d="m 52.209414,190.16978 c -0.952194,-0.10307 -1.799535,-0.33241 -2.604221,-0.70486 -2.325291,-1.07626 -3.989327,-3.24292 -4.429189,-5.76703 -0.07241,-0.41552 -0.09941,-0.70625 -0.109674,-1.18096 -0.02083,-0.96341 0.108893,-1.80844 0.416105,-2.71051 0.139701,-0.41021 0.37484,-0.93442 0.591429,-1.31851 0.136409,-0.24191 0.506457,-0.792 0.674371,-1.00248 0.437097,-0.54791 1.078683,-1.15503 1.624173,-1.53692 1.102786,-0.77203 2.231134,-1.20691 3.624417,-1.39688 0.339089,-0.0462 1.494377,-0.0467 1.824726,-7.5e-4 1.114412,0.15515 2.098331,0.48282 2.985111,0.99411 1.345728,0.77591 2.399461,1.88706 3.091916,3.2604 0.418438,0.82988 0.671465,1.6548 0.800288,2.60911 0.04405,0.32631 0.04405,1.54177 0,1.86809 -0.243858,1.80649 -1.00561,3.36639 -2.252215,4.61206 -1.243115,1.24218 -2.814276,2.01105 -4.580811,2.24167 -0.239666,0.0313 -0.402384,0.0391 -0.903504,0.0434 -0.336158,0.003 -0.674972,-0.002 -0.752922,-0.0101 z"
       id="path5537"
       inkscape:connector-curvature="0" />
    <path
       d="m 46.834968,187.05268 c 0.0055,-0.0266 0.502146,-2.17708 1.103768,-4.77885 l 1.093857,-4.7305 1.410951,-0.004 c 0.776023,-0.002 1.410951,-0.001 1.410951,0.004 0,0.008 0.83307,3.82014 0.969646,4.43694 0.04123,0.18618 0.08079,0.33852 0.08791,0.33852 0.02574,0 0.222115,-0.28621 2.150671,-3.13462 l 1.104331,-1.63105 h 1.449704 1.449704 l -0.0094,0.0396 c -0.03315,0.13948 -2.176204,9.4221 -2.184241,9.46099 l -0.01,0.0484 h -1.220204 c -0.729444,0 -1.220205,-0.007 -1.220205,-0.0162 0,-0.009 0.253642,-1.11479 0.56365,-2.45757 0.723932,-3.13569 0.861393,-3.73945 0.853231,-3.7476 -0.0037,-0.004 -0.04078,0.0394 -0.08248,0.0958 -0.06572,0.0888 -1.273555,1.92076 -2.238663,3.39536 l -0.313634,0.47921 h -0.842104 c -0.463158,0 -0.842105,-0.002 -0.842105,-0.005 0,-0.0305 -0.846848,-4.22352 -0.856009,-4.23834 -0.0072,-0.0116 -0.02249,0.0173 -0.03546,0.0669 -0.02898,0.11083 -1.482979,6.40154 -1.482979,6.41611 0,0.006 -0.522181,0.0108 -1.160402,0.0108 h -1.160403 z"
       id="path886"
       inkscape:path-effect="#path-effect884"
       inkscape:original-d="M 0,0"
       style="fill:#000000;fill-opacity:1;filter:url(#filter842)"
       inkscape:connector-curvature="0"
       transform="translate(-0.01181176)" />
    <path
       style="fill:#ffcc22;fill-opacity:1;stroke:none;stroke-width:0.06580249;stroke-miterlimit:4;stroke-dasharray:none;stroke-opacity:1"
       d="m 46.834968,187.05268 c 0.0055,-0.0266 0.502146,-2.17708 1.103768,-4.77885 l 1.093857,-4.7305 1.410951,-0.004 c 0.776023,-0.002 1.410951,-0.001 1.410951,0.004 0,0.008 0.83307,3.82014 0.969646,4.43694 0.04123,0.18618 0.08079,0.33852 0.08791,0.33852 0.02574,0 0.222115,-0.28621 2.150671,-3.13462 l 1.104331,-1.63105 h 1.449704 1.449704 l -0.0094,0.0396 c -0.03315,0.13948 -2.176204,9.4221 -2.184241,9.46099 l -0.01,0.0484 h -1.220204 c -0.729444,0 -1.220205,-0.007 -1.220205,-0.0162 0,-0.009 0.253642,-1.11479 0.56365,-2.45757 0.723932,-3.13569 0.861393,-3.73945 0.853231,-3.7476 -0.0037,-0.004 -0.04078,0.0394 -0.08248,0.0958 -0.06572,0.0888 -1.273555,1.92076 -2.238663,3.39536 l -0.313634,0.47921 h -0.842104 c -0.463158,0 -0.842105,-0.002 -0.842105,-0.005 0,-0.0305 -0.846848,-4.22352 -0.856009,-4.23834 -0.0072,-0.0116 -0.02249,0.0173 -0.03546,0.0669 -0.02898,0.11083 -1.482979,6.40154 -1.482979,6.41611 0,0.006 -0.522181,0.0108 -1.160402,0.0108 h -1.160403 z"
       id="path6356"
       inkscape:connector-curvature="0" />
  </g>
</svg>
